<svg width="32" height="32" viewBox="0 0 32 32" fill="none" xmlns="http://www.w3.org/2000/svg">
  <defs>
    <!-- Your theme colors -->
    <linearGradient id="grad" x1="0%" y1="0%" x2="100%" y2="100%">
      <stop offset="0%" style="stop-color:#8b5cf6;stop-opacity:1" />
      <stop offset="50%" style="stop-color:#7c3aed;stop-opacity:1" />
      <stop offset="100%" style="stop-color:#6366f1;stop-opacity:1" />
    </linearGradient>
    <linearGradient id="accent" x1="0%" y1="0%" x2="100%" y2="100%">
      <stop offset="0%" style="stop-color:#4f46e5;stop-opacity:1" />
      <stop offset="100%" style="stop-color:#6366f1;stop-opacity:1" />
    </linearGradient>
    <filter id="glow">
      <feGaussianBlur stdDeviation="1" result="coloredBlur"/>
      <feMerge>
        <feMergeNode in="coloredBlur"/>
        <feMergeNode in="SourceGraphic"/>
      </feMerge>
    </filter>
  </defs>
  
  <!-- Background -->
  <rect width="32" height="32" rx="8" fill="url(#grad)"/>
  
  <!-- Dashboard Grid -->
  <g transform="translate(6, 6)">
    <rect x="0" y="0" width="5.5" height="5.5" rx="1.5" fill="white" opacity="0.95"/>
    <rect x="7" y="0" width="5.5" height="5.5" rx="1.5" fill="white" opacity="0.95"/>
    <rect x="14" y="0" width="5.5" height="5.5" rx="1.5" fill="white" opacity="0.95"/>
    <rect x="0" y="7" width="5.5" height="5.5" rx="1.5" fill="white" opacity="0.95"/>
    <rect x="7" y="7" width="5.5" height="5.5" rx="1.5" fill="url(#accent)" filter="url(#glow)"/>
    <rect x="14" y="7" width="5.5" height="5.5" rx="1.5" fill="white" opacity="0.95"/>
    <rect x="0" y="14" width="5.5" height="5.5" rx="1.5" fill="white" opacity="0.95"/>
    <rect x="7" y="14" width="5.5" height="5.5" rx="1.5" fill="white" opacity="0.95"/>
    <rect x="14" y="14" width="5.5" height="5.5" rx="1.5" fill="white" opacity="0.95"/>
  </g>
  
  <!-- Sparkle -->
  <path d="M 25 7 L 26 8 L 25 9 L 24 8 Z" fill="white" opacity="0.9"/>
</svg>
