<svg width="200" height="200" viewBox="0 0 200 200" fill="none" xmlns="http://www.w3.org/2000/svg">
  <!-- STYLE: TD Monogram - Modern Split Design -->
  <defs>
    <linearGradient id="n7g1" x1="0%" y1="0%" x2="100%" y2="100%">
      <stop offset="0%" style="stop-color:#8b5cf6"/>
      <stop offset="100%" style="stop-color:#7c3aed"/>
    </linearGradient>
    <linearGradient id="n7g2" x1="0%" y1="0%" x2="100%" y2="100%">
      <stop offset="0%" style="stop-color:#6366f1"/>
      <stop offset="100%" style="stop-color:#4f46e5"/>
    </linearGradient>
    <linearGradient id="n7g3" x1="0%" y1="0%" x2="100%" y2="100%">
      <stop offset="0%" style="stop-color:#10b981"/>
      <stop offset="100%" style="stop-color:#34d399"/>
    </linearGradient>
    <filter id="n7s"><feDropShadow dx="0" dy="6" stdDeviation="10" flood-opacity="0.3"/></filter>
  </defs>
  
  <!-- Left half - T -->
  <path d="M 15 40 Q 15 15 40 15 L 97 15 L 97 185 L 40 185 Q 15 185 15 160 Z" fill="url(#n7g1)" filter="url(#n7s)"/>
  
  <!-- Right half - D -->
  <path d="M 103 15 L 160 15 Q 185 15 185 40 L 185 160 Q 185 185 160 185 L 103 185 Z" fill="url(#n7g2)" filter="url(#n7s)"/>
  
  <!-- T Letter on left -->
  <rect x="30" y="45" width="52" height="12" rx="6" fill="white"/>
  <rect x="50" y="45" width="12" height="95" rx="6" fill="white"/>
  
  <!-- D Letter on right -->
  <rect x="118" y="45" width="12" height="95" rx="6" fill="white" opacity="0.9"/>
  <path d="M 124 45 Q 170 45 170 95 Q 170 140 124 140" fill="none" stroke="white" stroke-width="12" stroke-linecap="round" opacity="0.9"/>
  
  <!-- Connecting trend line -->
  <path d="M 35 155 L 55 145 L 80 150 L 120 130 L 145 140 L 165 125" fill="none" stroke="url(#n7g3)" stroke-width="3" stroke-linecap="round"/>
  <circle cx="165" cy="125" r="5" fill="url(#n7g3)"/>
</svg>

